<?xml version="1.0" encoding="UTF-8"?>
<svg width="800" height="400" viewBox="0 0 800 400" xmlns="http://www.w3.org/2000/svg">
  <defs>
    <linearGradient id="ans-cs-bg" x1="0%" y1="0%" x2="100%" y2="100%">
      <stop offset="0%" style="stop-color:#b71c1c"/>
      <stop offset="100%" style="stop-color:#8B0000"/>
    </linearGradient>
    <linearGradient id="ans-cs-grad" x1="0%" y1="0%" x2="100%" y2="100%">
      <stop offset="0%" style="stop-color:#c62828"/>
      <stop offset="100%" style="stop-color:#8B0000"/>
    </linearGradient>
    <filter id="blur-ans-cs">
      <feGaussianBlur in="SourceGraphic" stdDeviation="8"/>
    </filter>
  </defs>
  <rect width="800" height="400" fill="url(#ans-cs-bg)"/>
  <circle cx="220" cy="200" r="140" fill="white" fill-opacity="0.35" filter="url(#blur-ans-cs)"/>
  <g transform="translate(100, 60)">
    <rect x="0" y="0" width="180" height="220" rx="8" fill="white" fill-opacity="0.95"/>
    <rect x="16" y="20" width="80" height="10" rx="2" fill="url(#ans-cs-grad)" opacity="0.9"/>
    <rect x="16" y="44" width="140" height="6" rx="2" fill="#E5E7EB"/>
    <rect x="16" y="58" width="120" height="6" rx="2" fill="#E5E7EB"/>
    <rect x="16" y="72" width="100" height="6" rx="2" fill="#E5E7EB"/>
    <rect x="16" y="96" width="60" height="10" rx="2" fill="url(#ans-cs-grad)" opacity="0.7"/>
    <rect x="16" y="120" width="148" height="6" rx="2" fill="#E5E7EB"/>
    <rect x="16" y="134" width="130" height="6" rx="2" fill="#E5E7EB"/>
    <rect x="16" y="158" width="70" height="10" rx="2" fill="url(#ans-cs-grad)" opacity="0.6"/>
    <rect x="16" y="182" width="140" height="6" rx="2" fill="#E5E7EB"/>
    <rect x="16" y="196" width="110" height="6" rx="2" fill="#E5E7EB"/>
  </g>
  <g transform="translate(280, 130) scale(1.4)">
    <circle cx="50" cy="50" r="42" fill="#1a1a1a"/>
    <path d="M 50 22 L 72 72 L 62 72 L 56 58 L 44 58 L 38 72 L 28 72 Z M 50 36 L 46 52 L 54 52 Z" fill="#FFFFFF"/>
  </g>
  <text x="400" y="175" font-family="system-ui,Arial,sans-serif" font-size="38" font-weight="bold" fill="white" text-anchor="start">Ansible</text>
  <text x="400" y="220" font-family="system-ui,Arial,sans-serif" font-size="22" fill="rgba(255,255,255,0.95)" text-anchor="start">Cheatsheet</text>
  <text x="400" y="260" font-family="system-ui,Arial,sans-serif" font-size="15" fill="rgba(255,255,255,0.85)" text-anchor="start">Inventory | Playbook | Modules | Galaxy</text>
</svg>
