<svg width="800" height="400" xmlns="http://www.w3.org/2000/svg">
  <defs>
    <linearGradient id="jn-bg" x1="0%" y1="0%" x2="100%" y2="100%">
      <stop offset="0%" style="stop-color:#d24939"/>
      <stop offset="100%" style="stop-color:#b33a2d"/>
    </linearGradient>
    <filter id="blur-jn">
      <feGaussianBlur in="SourceGraphic" stdDeviation="8"/>
    </filter>
  </defs>
  <rect width="800" height="400" fill="url(#jn-bg)"/>
  <circle cx="250" cy="200" r="135" fill="white" fill-opacity="0.45" filter="url(#blur-jn)"/>
  <g transform="translate(120, 70) scale(2.6)">
    <circle cx="50" cy="50" r="35" fill="#F0F2F5" stroke="#333" stroke-width="2"/>
    <path d="M 30 40 Q 35 35 40 40 M 60 40 Q 65 35 70 40" stroke="#333" stroke-width="2" fill="none"/>
    <circle cx="35" cy="45" r="3" fill="#333"/>
    <circle cx="65" cy="45" r="3" fill="#333"/>
    <path d="M 35 60 Q 50 50 65 60 L 60 65 Q 50 60 40 65 Z" fill="#333"/>
    <path d="M 40 75 L 30 85 L 30 65 Z" fill="#D32F2F"/>
    <path d="M 60 75 L 70 85 L 70 65 Z" fill="#D32F2F"/>
    <circle cx="50" cy="75" r="5" fill="#B71C1C"/>
  </g>
  <text x="480" y="175" font-family="system-ui,Arial,sans-serif" font-size="36" font-weight="bold" fill="white" text-anchor="start">Jenkins</text>
  <text x="480" y="225" font-family="system-ui,Arial,sans-serif" font-size="20" fill="rgba(255,255,255,0.95)" text-anchor="start">CI/CD Pipeline</text>
  <text x="480" y="265" font-family="system-ui,Arial,sans-serif" font-size="16" fill="rgba(255,255,255,0.8)" text-anchor="start">Build • Test • Deploy</text>
</svg>
