<?xml version="1.0" encoding="UTF-8"?>
<svg width="800" height="400" viewBox="0 0 800 400" xmlns="http://www.w3.org/2000/svg">
  <defs>
    <linearGradient id="jn-cs-bg" x1="0%" y1="0%" x2="100%" y2="100%">
      <stop offset="0%" style="stop-color:#d24939"/>
      <stop offset="100%" style="stop-color:#b33a2d"/>
    </linearGradient>
    <linearGradient id="jn-cs-grad" x1="0%" y1="0%" x2="100%" y2="100%">
      <stop offset="0%" style="stop-color:#e64a3b"/>
      <stop offset="100%" style="stop-color:#b71c1c"/>
    </linearGradient>
    <filter id="blur-jn-cs">
      <feGaussianBlur in="SourceGraphic" stdDeviation="8"/>
    </filter>
  </defs>
  <rect width="800" height="400" fill="url(#jn-cs-bg)"/>
  <circle cx="220" cy="200" r="140" fill="white" fill-opacity="0.35" filter="url(#blur-jn-cs)"/>
  <g transform="translate(100, 60)">
    <rect x="0" y="0" width="180" height="220" rx="8" fill="white" fill-opacity="0.95"/>
    <rect x="16" y="20" width="80" height="10" rx="2" fill="url(#jn-cs-grad)" opacity="0.9"/>
    <rect x="16" y="44" width="140" height="6" rx="2" fill="#E5E7EB"/>
    <rect x="16" y="58" width="120" height="6" rx="2" fill="#E5E7EB"/>
    <rect x="16" y="72" width="100" height="6" rx="2" fill="#E5E7EB"/>
    <rect x="16" y="96" width="60" height="10" rx="2" fill="url(#jn-cs-grad)" opacity="0.7"/>
    <rect x="16" y="120" width="148" height="6" rx="2" fill="#E5E7EB"/>
    <rect x="16" y="134" width="130" height="6" rx="2" fill="#E5E7EB"/>
    <rect x="16" y="158" width="70" height="10" rx="2" fill="url(#jn-cs-grad)" opacity="0.6"/>
    <rect x="16" y="182" width="140" height="6" rx="2" fill="#E5E7EB"/>
    <rect x="16" y="196" width="110" height="6" rx="2" fill="#E5E7EB"/>
  </g>
  <g transform="translate(280, 125) scale(1.5)">
    <circle cx="50" cy="50" r="32" fill="#F0F2F5" stroke="#333" stroke-width="2"/>
    <path d="M 32 42 Q 37 37 42 42 M 58 42 Q 63 37 68 42" stroke="#333" stroke-width="1.5" fill="none"/>
    <circle cx="38" cy="46" r="2.5" fill="#333"/>
    <circle cx="62" cy="46" r="2.5" fill="#333"/>
    <path d="M 38 58 Q 50 50 62 58 L 57 63 Q 50 58 43 63 Z" fill="#333"/>
    <path d="M 42 72 L 32 82 L 32 62 Z" fill="#D32F2F"/>
    <path d="M 58 72 L 68 82 L 68 62 Z" fill="#D32F2F"/>
    <circle cx="50" cy="72" r="4" fill="#B71C1C"/>
  </g>
  <text x="400" y="175" font-family="system-ui,Arial,sans-serif" font-size="38" font-weight="bold" fill="white" text-anchor="start">Jenkins</text>
  <text x="400" y="220" font-family="system-ui,Arial,sans-serif" font-size="22" fill="rgba(255,255,255,0.95)" text-anchor="start">Cheatsheet</text>
  <text x="400" y="260" font-family="system-ui,Arial,sans-serif" font-size="15" fill="rgba(255,255,255,0.85)" text-anchor="start">Pipeline | Stages | Docker | CI/CD</text>
</svg>
