<?xml version="1.0" encoding="UTF-8"?>
<svg width="800" height="400" viewBox="0 0 800 400" xmlns="http://www.w3.org/2000/svg">
  <defs>
    <linearGradient id="k8s-bg" x1="0%" y1="0%" x2="100%" y2="100%">
      <stop offset="0%" style="stop-color:#326ce5"/>
      <stop offset="100%" style="stop-color:#1a4bb5"/>
    </linearGradient>
    <linearGradient id="k8s-grad" x1="0%" y1="0%" x2="100%" y2="100%">
      <stop offset="0%" style="stop-color:#326ce5"/>
      <stop offset="100%" style="stop-color:#1a4bb5"/>
    </linearGradient>
    <filter id="blur-k8s">
      <feGaussianBlur in="SourceGraphic" stdDeviation="8"/>
    </filter>
  </defs>
  <rect width="800" height="400" fill="url(#k8s-bg)"/>
  <circle cx="220" cy="200" r="140" fill="white" fill-opacity="0.25" filter="url(#blur-k8s)"/>
  <g transform="translate(100, 60)">
    <rect x="0" y="0" width="180" height="220" rx="8" fill="white" fill-opacity="0.95"/>
    <rect x="16" y="20" width="80" height="10" rx="2" fill="url(#k8s-grad)" opacity="0.9"/>
    <rect x="16" y="44" width="140" height="6" rx="2" fill="#E5E7EB"/>
    <rect x="16" y="58" width="120" height="6" rx="2" fill="#E5E7EB"/>
    <rect x="16" y="72" width="100" height="6" rx="2" fill="#E5E7EB"/>
    <rect x="16" y="96" width="60" height="10" rx="2" fill="url(#k8s-grad)" opacity="0.7"/>
    <rect x="16" y="120" width="148" height="6" rx="2" fill="#E5E7EB"/>
    <rect x="16" y="134" width="130" height="6" rx="2" fill="#E5E7EB"/>
    <rect x="16" y="158" width="70" height="10" rx="2" fill="url(#k8s-grad)" opacity="0.6"/>
    <rect x="16" y="182" width="140" height="6" rx="2" fill="#E5E7EB"/>
    <rect x="16" y="196" width="110" height="6" rx="2" fill="#E5E7EB"/>
  </g>
  <!-- Kubernetes logo: hexagon wheel -->
  <g transform="translate(260, 80) scale(2.0)">
    <path d="M 50 10 L 85 30 L 85 70 L 50 90 L 15 70 L 15 30 Z" fill="#326CE5"/>
    <circle cx="50" cy="50" r="25" fill="white"/>
    <path d="M 50 50 L 50 20 M 50 50 L 75 65 M 50 50 L 25 65" stroke="#326CE5" stroke-width="5" stroke-linecap="round"/>
    <circle cx="50" cy="50" r="8" fill="#326CE5"/>
  </g>
  <text x="400" y="172" font-family="system-ui,Arial,sans-serif" font-size="36" font-weight="bold" fill="white" text-anchor="start">Kubernetes</text>
  <text x="400" y="218" font-family="system-ui,Arial,sans-serif" font-size="22" fill="rgba(255,255,255,0.95)" text-anchor="start">Cheatsheet</text>
  <text x="400" y="258" font-family="system-ui,Arial,sans-serif" font-size="15" fill="rgba(255,255,255,0.85)" text-anchor="start">kubectl | Pod | Deployment | YAML</text>
</svg>
