<?xml version="1.0" encoding="UTF-8"?>
<svg width="800" height="400" viewBox="0 0 800 400" xmlns="http://www.w3.org/2000/svg">
  <defs>
    <linearGradient id="tf-cs-bg" x1="0%" y1="0%" x2="100%" y2="100%">
      <stop offset="0%" style="stop-color:#5B21B6"/>
      <stop offset="100%" style="stop-color:#7C3AED"/>
    </linearGradient>
    <linearGradient id="tf-cs-grad" x1="0%" y1="0%" x2="100%" y2="100%">
      <stop offset="0%" style="stop-color:#844FBA"/>
      <stop offset="100%" style="stop-color:#5C4EE5"/>
    </linearGradient>
    <filter id="blur-cs">
      <feGaussianBlur in="SourceGraphic" stdDeviation="8"/>
    </filter>
  </defs>
  <rect width="800" height="400" fill="url(#tf-cs-bg)"/>
  <circle cx="220" cy="200" r="140" fill="white" fill-opacity="0.4" filter="url(#blur-cs)"/>
  <!-- Document / list icon (cheatsheet style) -->
  <g transform="translate(100, 60)">
    <rect x="0" y="0" width="180" height="220" rx="8" fill="white" fill-opacity="0.95"/>
    <rect x="16" y="20" width="80" height="10" rx="2" fill="url(#tf-cs-grad)" opacity="0.9"/>
    <rect x="16" y="44" width="140" height="6" rx="2" fill="#E5E7EB"/>
    <rect x="16" y="58" width="120" height="6" rx="2" fill="#E5E7EB"/>
    <rect x="16" y="72" width="100" height="6" rx="2" fill="#E5E7EB"/>
    <rect x="16" y="96" width="60" height="10" rx="2" fill="url(#tf-cs-grad)" opacity="0.7"/>
    <rect x="16" y="120" width="148" height="6" rx="2" fill="#E5E7EB"/>
    <rect x="16" y="134" width="130" height="6" rx="2" fill="#E5E7EB"/>
    <rect x="16" y="158" width="70" height="10" rx="2" fill="url(#tf-cs-grad)" opacity="0.6"/>
    <rect x="16" y="182" width="140" height="6" rx="2" fill="#E5E7EB"/>
    <rect x="16" y="196" width="110" height="6" rx="2" fill="#E5E7EB"/>
  </g>
  <!-- Terraform hexagon accent -->
  <g transform="translate(280, 140) scale(1.2)">
    <path d="M 0 25 L 22 12 L 22 50 L 0 63 Z" fill="url(#tf-cs-grad)" opacity="0.9"/>
    <path d="M 26 10 L 48 24 L 48 62 L 26 48 Z" fill="url(#tf-cs-grad)" opacity="0.9"/>
    <path d="M 0 67 L 22 54 L 22 92 L 0 105 Z" fill="url(#tf-cs-grad)" opacity="0.8"/>
    <path d="M 26 52 L 48 38 L 70 52 L 48 66 Z" fill="url(#tf-cs-grad)" opacity="0.85"/>
  </g>
  <text x="380" y="165" font-family="system-ui,Arial,sans-serif" font-size="38" font-weight="bold" fill="white" text-anchor="start">Terraform</text>
  <text x="380" y="210" font-family="system-ui,Arial,sans-serif" font-size="22" fill="rgba(255,255,255,0.95)" text-anchor="start">Cheatsheet</text>
  <text x="380" y="250" font-family="system-ui,Arial,sans-serif" font-size="15" fill="rgba(255,255,255,0.85)" text-anchor="start">init | plan | apply | state | HCL</text>
</svg>
